<svg width="60" height="60" viewBox="0 0 60 60" xmlns="http://www.w3.org/2000/svg">
  <g fill="#FF6B6B" fill-opacity="0.1" fill-rule="evenodd">
    <path d="M36 34.15c-1.2 0-2.36.47-3.22 1.3-1.78 1.73-1.78 4.5 0 6.22.86.84 2 1.3 3.22 1.3 1.2 0 2.36-.47 3.22-1.3 1.78-1.73 1.78-4.5 0-6.22-.86-.84-2-1.3-3.22-1.3zM29.5 26.5c-1.2 0-2.36.47-3.22 1.3-1.78 1.73-1.78 4.5 0 6.22.86.84 2 1.3 3.22 1.3 1.2 0 2.36-.47 3.22-1.3 1.78-1.73 1.78-4.5 0-6.22-.86-.84-2-1.3-3.22-1.3zM42.5 26.5c-1.2 0-2.36.47-3.22 1.3-1.78 1.73-1.78 4.5 0 6.22.86.84 2 1.3 3.22 1.3 1.2 0 2.36-.47 3.22-1.3 1.78-1.73 1.78-4.5 0-6.22-.86-.84-2-1.3-3.22-1.3zM24 34.15c-1.2 0-2.36.47-3.22 1.3-1.78 1.73-1.78 4.5 0 6.22.86.84 2 1.3 3.22 1.3 1.2 0 2.36-.47 3.22-1.3 1.78-1.73 1.78-4.5 0-6.22-.86-.84-2-1.3-3.22-1.3z"/>
  </g>
</svg>
