<svg width="800" height="600" viewBox="0 0 800 600" fill="none" xmlns="http://www.w3.org/2000/svg">
  <path d="M400 500C552.5 500 676 400 676 300C676 200 552.5 100 400 100C247.5 100 124 200 124 300C124 400 247.5 500 400 500Z" fill="#FFE0E0"/>
  <path d="M300 350C328.5 350 351.5 327 351.5 298.5C351.5 270 328.5 247 300 247C271.5 247 248.5 270 248.5 298.5C248.5 327 271.5 350 300 350Z" fill="#FF6B6B"/>
  <path d="M500 350C528.5 350 551.5 327 551.5 298.5C551.5 270 528.5 247 500 247C471.5 247 448.5 270 448.5 298.5C448.5 327 471.5 350 500 350Z" fill="#4ECDC4"/>
  <path d="M400 400C428.5 400 451.5 377 451.5 348.5C451.5 320 428.5 297 400 297C371.5 297 348.5 320 348.5 348.5C348.5 377 371.5 400 400 400Z" fill="#FFD166"/>
  <path d="M250 250C278.5 250 301.5 227 301.5 198.5C301.5 170 278.5 147 250 147C221.5 147 198.5 170 198.5 198.5C198.5 227 221.5 250 250 250Z" fill="#FF8FBA"/>
  <path d="M550 250C578.5 250 601.5 227 601.5 198.5C601.5 170 578.5 147 550 147C521.5 147 498.5 170 498.5 198.5C498.5 227 521.5 250 550 250Z" fill="#7FB069"/>
</svg>
